<?xml version="1.0" standalone="no"?>
<!DOCTYPE svg PUBLIC "-//W3C//DTD SVG 20010904//EN"
 "http://www.w3.org/TR/2001/REC-SVG-20010904/DTD/svg10.dtd">
<svg version="1.0" xmlns="http://www.w3.org/2000/svg"
 width="1178.000000pt" height="1178.000000pt" viewBox="0 0 1178.000000 1178.000000"
 preserveAspectRatio="xMidYMid meet">

<g transform="translate(0.000000,1178.000000) scale(0.100000,-0.100000)"
fill="#000000" stroke="none">
<path d="M0 5890 l0 -5890 5890 0 5890 0 0 5890 0 5890 -5890 0 -5890 0 0
-5890z m6196 5039 c617 -61 1185 -329 1619 -764 323 -324 560 -731 680 -1170
139 -508 118 -1087 -57 -1575 l-34 -95 -305 -3 -304 -2 -1 182 c-1 249 -33
405 -132 638 -191 452 -604 906 -1207 1324 -38 27 -74 53 -79 57 -13 11 97
171 172 251 85 90 169 153 267 199 127 59 140 60 232 4 353 -213 695 -545 896
-869 207 -332 310 -743 280 -1112 -5 -71 -9 -130 -7 -132 7 -10 36 157 46 268
15 158 1 345 -38 517 -113 504 -448 976 -956 1345 -37 27 -68 51 -68 53 0 13
206 -28 302 -61 89 -30 96 -30 36 1 -270 141 -537 166 -781 75 -155 -58 -353
-236 -487 -437 -171 -255 -338 -684 -412 -1057 -12 -61 -27 -114 -32 -118 -23
-16 -378 -129 -506 -162 -122 -31 -311 -66 -429 -79 l-44 -5 7 136 c28 551
163 1099 358 1450 273 491 652 748 1171 794 133 12 137 13 67 16 -178 8 -430
-38 -612 -112 -619 -251 -1014 -897 -1138 -1862 -9 -68 -40 -392 -40 -418 0
-13 -193 0 -285 19 -156 33 -312 107 -408 195 l-49 45 11 130 c42 473 188 912
419 1260 229 345 521 581 932 752 119 50 86 50 -62 1 -589 -195 -1046 -645
-1263 -1244 -70 -191 -123 -406 -145 -589 -19 -149 -18 -148 -45 -95 -35 70
-65 161 -85 262 l-18 93 -1 -65 c0 -36 6 -110 14 -165 56 -374 245 -602 590
-710 173 -54 301 -68 555 -62 319 8 614 59 964 167 l99 30 55 -41 c179 -136
466 -409 591 -562 35 -43 62 -79 60 -81 -22 -18 -214 -118 -336 -174 l-112
-52 -1049 0 -1050 0 -66 57 c-115 99 -243 265 -331 430 -21 40 -40 71 -42 69
-6 -6 42 -127 82 -206 47 -93 114 -199 169 -265 23 -27 47 -58 55 -68 13 -17
3 -17 -204 -15 l-217 3 -30 80 c-39 106 -102 353 -125 490 -26 159 -26 651 0
808 100 591 355 1080 778 1492 211 205 406 343 674 475 291 144 592 228 945
263 83 9 365 6 466 -4z m-2513 -871 c-4 -7 -42 -65 -84 -128 -111 -167 -234
-398 -273 -515 -5 -14 -75 -53 -224 -127 -119 -59 -275 -140 -346 -180 l-129
-73 6 -75 c22 -270 29 -707 18 -1032 -11 -314 -27 -597 -35 -605 -1 -2 -321
-2 -709 -1 l-706 3 466 120 c436 112 466 122 475 145 6 15 12 225 15 515 6
499 -2 738 -32 1000 -9 72 -16 143 -18 159 -2 26 7 34 103 94 411 255 892 495
1322 657 155 59 163 61 151 43z m4688 -47 c412 -156 752 -322 1197 -584 l223
-132 -6 -37 c-16 -111 -36 -328 -46 -518 -12 -221 -6 -1040 9 -1129 l7 -44
467 -121 467 -121 -706 -3 c-388 -1 -707 -1 -709 1 -1 1 -8 76 -14 167 -25
353 -28 1070 -5 1426 l8 120 -94 54 c-52 30 -206 111 -343 181 l-250 126 -52
116 c-68 154 -141 285 -241 434 -45 68 -79 123 -75 123 5 0 78 -26 163 -59z
m-1975 -774 c619 -414 1075 -936 1234 -1414 51 -154 70 -253 77 -390 l6 -113
-409 1 -409 0 -47 98 c-120 248 -359 555 -655 840 -92 90 -143 146 -143 159 0
38 58 367 85 477 37 157 125 415 140 415 7 0 62 -33 121 -73z m-3239 -429 c-3
-13 -8 -50 -12 -83 -3 -33 -8 -75 -11 -92 l-5 -33 -94 0 -95 0 0 115 0 115
111 0 c110 0 111 0 106 -22z m5793 -93 l0 -115 -94 0 -94 0 -11 98 c-7 53 -14
105 -17 115 -5 15 5 17 105 17 l111 0 0 -115z m-5786 -827 c10 -51 20 -103 23
-115 5 -23 5 -23 -121 -23 l-126 0 0 115 0 115 104 0 103 0 17 -92z m5786 -23
l0 -115 -126 0 c-112 0 -125 2 -120 16 3 9 14 61 23 115 l16 99 104 0 103 0 0
-115z m-2219 -527 c9 -16 3 -18 -63 -18 l-73 1 55 28 c56 30 57 29 81 -11z
m-1753 -369 c67 -10 125 -19 127 -19 3 0 5 -68 5 -150 l0 -150 -82 7 c-46 5
-157 8 -248 8 -252 0 -274 -18 -274 -215 0 -123 10 -160 46 -184 13 -8 107
-31 209 -50 206 -38 239 -49 293 -96 88 -77 120 -196 119 -440 0 -364 -77
-517 -288 -577 -109 -31 -430 -27 -647 9 l-68 11 0 149 0 150 158 -9 c333 -17
415 -6 456 67 28 47 29 255 2 312 -25 51 -60 65 -275 105 -212 39 -257 59
-303 133 -97 158 -97 612 -1 769 30 48 98 112 143 136 128 65 351 77 628 34z
m2472 10 c41 -5 103 -14 138 -20 l62 -11 0 -150 0 -149 -82 8 c-46 4 -159 8
-253 8 -186 -1 -217 -8 -252 -62 -24 -36 -31 -220 -11 -277 21 -62 44 -73 253
-112 214 -40 269 -62 322 -132 58 -77 75 -153 81 -360 10 -423 -81 -588 -350
-632 -122 -19 -358 -11 -580 21 l-78 11 0 150 0 150 158 -9 c342 -18 436 -3
467 71 20 47 21 253 1 300 -26 62 -45 69 -295 116 -180 34 -224 51 -270 107
-105 126 -122 584 -30 766 52 100 117 157 220 188 121 37 301 43 499 18z
m-6296 -739 c43 -399 82 -729 87 -734 5 -5 11 -8 13 -5 4 4 216 1444 216 1465
0 2 99 4 219 4 l219 0 6 -27 c3 -16 51 -343 107 -728 56 -385 105 -704 110
-709 5 -5 11 -8 13 -5 4 4 156 1431 156 1462 0 4 84 7 186 7 145 0 185 -3 182
-12 -3 -7 -65 -428 -139 -936 l-133 -922 -255 2 -255 3 -96 647 c-53 356 -99
650 -103 654 -4 4 -9 5 -11 3 -2 -2 -45 -285 -95 -629 -50 -344 -94 -637 -97
-652 l-6 -28 -253 0 -254 0 -6 33 c-3 17 -62 424 -130 902 -69 479 -127 885
-130 903 l-6 32 188 -2 188 -3 79 -725z m2706 570 l0 -160 -267 -2 -268 -3 -3
-217 -2 -218 235 0 235 0 -2 -162 -3 -163 -232 -3 -233 -2 0 -225 0 -225 270
0 270 0 0 -165 0 -165 -455 0 -455 0 0 935 0 935 455 0 455 0 0 -160z m2600
-5 l0 -165 -175 0 -175 0 0 -770 0 -770 -185 0 -185 0 -2 768 -3 767 -177 3
-178 2 0 165 0 165 540 0 540 0 0 -165z m1950 -770 l0 -935 -185 0 -185 0 0
935 0 935 185 0 185 0 0 -935z m1113 920 c198 -35 294 -122 332 -302 27 -126
38 -392 32 -738 -8 -438 -23 -542 -89 -641 -65 -95 -159 -142 -330 -164 -46
-5 -216 -10 -380 -10 l-298 0 0 935 0 935 324 0 c243 0 345 -4 409 -15z m1617
-145 l0 -160 -265 0 -265 0 0 -220 0 -220 230 0 230 0 0 -165 0 -165 -230 0
-230 0 0 -225 0 -225 265 0 265 0 0 -165 0 -165 -450 0 -450 0 0 935 0 935
450 0 450 0 0 -160z m-195 -2046 c-5 -3 -215 -82 -465 -177 l-454 -172 -7 -40
c-4 -22 -12 -92 -19 -155 -38 -378 -161 -750 -336 -1012 -117 -176 -354 -405
-639 -616 -368 -273 -802 -540 -1460 -897 -508 -275 -807 -450 -1080 -631
-289 -190 -484 -353 -520 -434 l-18 -41 -14 31 c-32 78 -246 259 -513 437
-255 170 -612 378 -1110 648 -964 523 -1560 926 -1906 1288 -297 310 -459 711
-518 1277 -8 72 -18 136 -23 140 -4 4 -215 85 -468 180 -253 95 -462 174 -464
176 -2 2 2252 4 5010 3 2758 0 5010 -3 5004 -5z"/>
<path d="M9160 6041 l0 -611 118 0 c184 0 214 25 232 191 12 121 13 696 0 816
-5 51 -17 110 -26 133 -24 60 -55 72 -201 78 l-123 5 0 -612z"/>
<path d="M2360 4518 c0 -140 47 -459 90 -612 95 -337 222 -523 535 -781 357
-294 795 -570 1621 -1020 572 -313 964 -547 1233 -737 l104 -74 226 151 c333
222 605 382 1201 705 746 405 1264 738 1607 1034 183 158 281 279 363 451 105
218 167 486 186 803 l7 112 -3586 0 -3587 0 0 -32z m543 -568 c137 -183 402
-406 777 -653 286 -187 527 -328 1100 -639 627 -341 1088 -656 1152 -787 l15
-32 12 29 c16 37 125 144 226 220 212 159 542 360 1010 615 714 389 1097 626
1415 877 157 125 354 327 428 439 34 52 62 92 62 90 0 -3 -11 -39 -25 -80 -40
-117 -128 -287 -196 -380 -230 -311 -749 -676 -1659 -1169 -531 -288 -861
-488 -1075 -655 -84 -65 -195 -178 -195 -197 0 -6 -14 10 -31 36 -93 139 -515
417 -1214 798 -839 458 -1225 712 -1527 1006 -133 130 -216 240 -283 377 -38
77 -105 253 -105 274 0 3 16 -22 36 -55 19 -32 54 -84 77 -114z m779 30 l80 0
-63 -46 c-35 -26 -65 -48 -66 -49 -2 -1 8 -34 22 -74 14 -42 19 -69 12 -65 -7
4 -33 22 -58 41 -26 18 -51 33 -56 33 -5 0 -35 -18 -66 -41 -32 -22 -57 -36
-57 -31 0 5 9 35 20 67 11 32 20 62 20 66 0 4 -28 27 -62 51 l-61 43 80 3 80
3 18 62 c10 34 21 66 24 72 2 5 15 -23 29 -63 l24 -72 80 0z m401 68 c3 -13
20 -100 38 -195 18 -95 35 -170 38 -167 2 2 21 89 41 192 l36 187 38 3 c21 2
44 1 51 -1 9 -4 -3 -76 -50 -285 -34 -154 -65 -285 -69 -291 -4 -6 -27 -11
-51 -11 -43 0 -45 1 -54 38 -10 37 -121 539 -121 548 0 2 22 4 49 4 42 0 49
-3 54 -22z m588 9 c35 -27 39 -53 39 -277 0 -253 -4 -272 -68 -289 -79 -22
-180 -7 -207 32 -12 18 -15 62 -15 258 l0 236 26 27 c25 24 33 26 118 26 56
-1 97 -5 107 -13z m239 -232 l0 -245 90 0 90 0 0 -50 0 -50 -140 0 -140 0 0
295 0 295 50 0 50 0 0 -245z m380 0 l0 -244 93 -3 92 -3 0 -45 0 -45 -142 -3
-143 -3 0 296 0 295 50 0 50 0 0 -245z m575 200 l0 -40 -97 -3 -98 -3 0 -74 0
-75 75 0 75 0 0 -50 0 -50 -75 0 -75 0 0 -75 0 -74 98 -3 97 -3 0 -45 0 -45
-145 0 -145 0 -3 293 -2 293 147 -3 148 -3 0 -40z m211 -52 c21 -54 41 -102
45 -106 4 -5 25 38 47 95 l40 103 52 3 c62 4 64 24 -26 -194 l-64 -156 0 -120
0 -119 -47 3 -48 3 -5 135 -5 135 -62 149 c-35 82 -63 153 -63 158 0 4 22 8
49 8 l49 0 38 -97z m571 73 c27 -23 28 -29 31 -126 4 -92 2 -104 -17 -124 -20
-21 -20 -22 -1 -34 17 -11 20 -23 20 -101 0 -160 -16 -176 -184 -176 l-111 0
-3 293 -2 292 119 0 c112 0 122 -2 148 -24z m431 -263 c34 -159 62 -292 62
-296 0 -4 -21 -7 -47 -5 l-48 3 -14 58 -14 58 -65 -3 -66 -3 -10 -55 -11 -55
-47 -3 c-38 -2 -48 0 -48 12 0 13 98 479 117 554 5 20 11 22 67 22 l62 0 62
-287z m252 42 l0 -244 93 -3 c88 -3 92 -4 95 -27 2 -12 1 -34 -2 -47 -6 -24
-7 -24 -146 -24 l-140 0 0 295 0 295 50 0 50 0 0 -245z m380 0 l0 -244 93 -3
92 -3 0 -45 0 -45 -140 0 -140 0 -3 293 -2 292 50 0 50 0 0 -245z m-2224 -498
c20 -24 24 -39 24 -98 l0 -69 -45 0 c-42 0 -45 2 -45 28 0 62 -9 73 -54 70
l-41 -3 0 -190 0 -190 41 -3 c45 -3 54 8 54 71 0 25 3 27 45 27 l45 0 0 -71
c0 -65 -2 -73 -29 -100 -28 -28 -34 -29 -116 -29 -82 0 -88 1 -116 29 l-29 29
0 234 c0 299 0 300 158 295 78 -2 85 -4 108 -30z m222 -214 l2 -243 90 0 c86
0 90 -1 96 -24 3 -13 4 -35 2 -47 -3 -24 -4 -24 -145 -27 l-143 -3 0 296 0
296 48 -3 47 -3 3 -242z m382 2 l5 -240 39 -3 c24 -2 42 2 47 10 5 7 9 118 9
246 l0 232 45 0 c39 0 45 -3 51 -24 3 -14 4 -132 2 -263 -3 -258 -6 -272 -60
-294 -16 -6 -62 -10 -107 -8 -68 4 -84 8 -103 27 -23 22 -23 27 -26 293 l-3
270 48 -3 48 -3 5 -240z m533 234 c41 -18 52 -53 52 -157 0 -84 -2 -96 -21
-110 l-21 -17 21 -16 c19 -15 21 -28 21 -112 0 -152 -17 -167 -185 -167 l-110
0 0 295 0 295 110 0 c60 0 120 -5 133 -11z"/>
<path d="M4520 3961 c-11 -21 -14 -320 -4 -358 5 -19 13 -23 49 -23 30 0 45 5
49 16 10 27 7 344 -4 365 -7 13 -21 19 -45 19 -24 0 -38 -6 -45 -19z"/>
<path d="M6487 3973 c-4 -3 -7 -37 -7 -75 l0 -69 48 3 47 3 3 64 c2 45 -1 67
-10 72 -16 10 -72 12 -81 2z"/>
<path d="M6480 3655 l0 -76 48 3 47 3 0 70 0 70 -47 3 -48 3 0 -76z"/>
<path d="M6951 3930 c-7 -33 -41 -218 -41 -227 0 -9 16 -13 45 -13 l46 0 -7
38 c-18 94 -42 207 -43 202z"/>
<path d="M6480 3185 l0 -75 34 0 c47 0 66 22 66 75 0 67 -6 75 -56 75 l-44 0
0 -75z"/>
<path d="M6480 2945 l0 -75 44 0 c50 0 56 8 56 75 0 53 -19 75 -66 75 l-34 0
0 -75z"/>
</g>
</svg>
